<?xml version="1.0" standalone="no"?>
<!DOCTYPE svg PUBLIC "-//W3C//DTD SVG 20010904//EN"
 "http://www.w3.org/TR/2001/REC-SVG-20010904/DTD/svg10.dtd">
<svg version="1.0" xmlns="http://www.w3.org/2000/svg"
 width="96.000000pt" height="96.000000pt" viewBox="0 0 96.000000 96.000000"
 preserveAspectRatio="xMidYMid meet">
<metadata>
Created by potrace 1.14, written by Peter Selinger 2001-2017
</metadata>
<g transform="translate(0.000000,96.000000) scale(0.100000,-0.100000)"
fill="#000000" stroke="none">
<path d="M215 834 c-46 -7 -136 -33 -177 -51 l-38 -16 0 -317 c0 -280 2 -319
16 -324 8 -3 43 3 76 14 90 29 183 43 250 37 52 -5 70 -12 124 -51 8 -7 26 -1
56 19 37 25 54 30 119 32 77 2 171 -15 243 -43 21 -8 47 -12 57 -9 18 6 19 21
19 325 l0 318 -37 15 c-100 39 -166 52 -268 51 -81 -1 -96 -3 -151 -25 -26
-10 -36 -9 -65 5 -34 18 -162 29 -224 20z m597 -75 c43 -10 80 -19 83 -19 3 0
5 -124 5 -276 0 -259 -1 -276 -17 -269 -42 15 -149 36 -206 39 -58 3 -93 -2
-144 -18 l-23 -7 0 269 0 269 38 16 c67 29 138 28 264 -4z"/>
</g>
</svg>
