<svg width="172" height="28" viewBox="0 0 172 28" fill="none" xmlns="http://www.w3.org/2000/svg">
<path d="M15.2965 0.886187C14.8471 -0.295396 13.1518 -0.295396 12.7038 0.886187H12.7024L9.80456 8.91366C9.70363 9.17528 9.52565 9.40007 9.29416 9.55832C9.06268 9.71656 8.78861 9.80079 8.50821 9.79985H1.38673C0.0735874 9.79985 -0.503187 11.4378 0.532767 12.24L5.60054 16.7997C5.82755 16.9743 5.99345 17.2162 6.07443 17.4909C6.15542 17.7655 6.14733 18.0588 6.05132 18.3285L4.2006 26.1726C3.74982 27.4312 5.20996 28.5148 6.31171 27.7392L13.1952 23.3712C13.4309 23.2056 13.712 23.1167 14.0002 23.1167C14.2883 23.1167 14.5694 23.2056 14.8051 23.3712L21.6886 27.7392C22.7918 28.5148 24.2505 27.4326 23.7997 26.1726L21.949 18.3285C21.853 18.0588 21.8449 17.7655 21.9259 17.4909C22.0069 17.2162 22.1728 16.9743 22.3998 16.7997L27.4676 12.24C28.5021 11.4378 27.9282 9.79985 26.6122 9.79985H19.4907C19.2104 9.80059 18.9364 9.71629 18.7049 9.55807C18.4735 9.39985 18.2955 9.17516 18.1944 8.91366L15.2965 0.886187Z" fill="#FDBF1C"/>
<path d="M51.2965 0.886187C50.8471 -0.295396 49.1518 -0.295396 48.7038 0.886187H48.7024L45.8046 8.91366C45.7036 9.17528 45.5256 9.40007 45.2942 9.55832C45.0627 9.71656 44.7886 9.80079 44.5082 9.79985H37.3867C36.0736 9.79985 35.4968 11.4378 36.5328 12.24L41.6005 16.7997C41.8276 16.9743 41.9934 17.2162 42.0744 17.4909C42.1554 17.7655 42.1473 18.0588 42.0513 18.3285L40.2006 26.1726C39.7498 27.4312 41.21 28.5148 42.3117 27.7392L49.1952 23.3712C49.4309 23.2056 49.712 23.1167 50.0002 23.1167C50.2883 23.1167 50.5694 23.2056 50.8051 23.3712L57.6886 27.7392C58.7918 28.5148 60.2505 27.4326 59.7997 26.1726L57.949 18.3285C57.853 18.0588 57.8449 17.7655 57.9259 17.4909C58.0069 17.2162 58.1728 16.9743 58.3998 16.7997L63.4676 12.24C64.5021 11.4378 63.9282 9.79985 62.6122 9.79985H55.4907C55.2104 9.80059 54.9364 9.71629 54.7049 9.55807C54.4735 9.39985 54.2955 9.17516 54.1944 8.91366L51.2965 0.886187Z" fill="#FDBF1C"/>
<path d="M87.2965 0.886187C86.8471 -0.295396 85.1518 -0.295396 84.7038 0.886187H84.7024L81.8046 8.91366C81.7036 9.17528 81.5256 9.40007 81.2942 9.55832C81.0627 9.71656 80.7886 9.80079 80.5082 9.79985H73.3867C72.0736 9.79985 71.4968 11.4378 72.5328 12.24L77.6005 16.7997C77.8276 16.9743 77.9934 17.2162 78.0744 17.4909C78.1554 17.7655 78.1473 18.0588 78.0513 18.3285L76.2006 26.1726C75.7498 27.4312 77.21 28.5148 78.3117 27.7392L85.1952 23.3712C85.4309 23.2056 85.712 23.1167 86.0002 23.1167C86.2883 23.1167 86.5694 23.2056 86.8051 23.3712L93.6886 27.7392C94.7918 28.5148 96.2505 27.4326 95.7997 26.1726L93.949 18.3285C93.853 18.0588 93.8449 17.7655 93.9259 17.4909C94.0069 17.2162 94.1728 16.9743 94.3998 16.7997L99.4676 12.24C100.502 11.4378 99.9282 9.79985 98.6122 9.79985H91.4907C91.2104 9.80059 90.9364 9.71629 90.7049 9.55807C90.4735 9.39985 90.2955 9.17516 90.1944 8.91366L87.2965 0.886187Z" fill="#FDBF1C"/>
<path d="M123.297 0.886187C122.847 -0.295396 121.152 -0.295396 120.704 0.886187H120.702L117.805 8.91366C117.704 9.17528 117.526 9.40007 117.294 9.55832C117.063 9.71656 116.789 9.80079 116.508 9.79985H109.387C108.074 9.79985 107.497 11.4378 108.533 12.24L113.601 16.7997C113.828 16.9743 113.993 17.2162 114.074 17.4909C114.155 17.7655 114.147 18.0588 114.051 18.3285L112.201 26.1726C111.75 27.4312 113.21 28.5148 114.312 27.7392L121.195 23.3712C121.431 23.2056 121.712 23.1167 122 23.1167C122.288 23.1167 122.569 23.2056 122.805 23.3712L129.689 27.7392C130.792 28.5148 132.251 27.4326 131.8 26.1726L129.949 18.3285C129.853 18.0588 129.845 17.7655 129.926 17.4909C130.007 17.2162 130.173 16.9743 130.4 16.7997L135.468 12.24C136.502 11.4378 135.928 9.79985 134.612 9.79985H127.491C127.21 9.80059 126.936 9.71629 126.705 9.55807C126.474 9.39985 126.295 9.17516 126.194 8.91366L123.297 0.886187Z" fill="#FDBF1C"/>
<path d="M159.297 0.886187C158.847 -0.295396 157.152 -0.295396 156.704 0.886187H156.702L153.805 8.91366C153.704 9.17528 153.526 9.40007 153.294 9.55832C153.063 9.71656 152.789 9.80079 152.508 9.79985H145.387C144.074 9.79985 143.497 11.4378 144.533 12.24L149.601 16.7997C149.828 16.9743 149.993 17.2162 150.074 17.4909C150.155 17.7655 150.147 18.0588 150.051 18.3285L148.201 26.1726C147.75 27.4312 149.21 28.5148 150.312 27.7392L157.195 23.3712C157.431 23.2056 157.712 23.1167 158 23.1167C158.288 23.1167 158.569 23.2056 158.805 23.3712L165.689 27.7392C166.792 28.5148 168.251 27.4326 167.8 26.1726L165.949 18.3285C165.853 18.0588 165.845 17.7655 165.926 17.4909C166.007 17.2162 166.173 16.9743 166.4 16.7997L171.468 12.24C172.502 11.4378 171.928 9.79985 170.612 9.79985H163.491C163.21 9.80059 162.936 9.71629 162.705 9.55807C162.474 9.39985 162.295 9.17516 162.194 8.91366L159.297 0.886187Z" fill="#FDBF1C"/>
</svg>
