    <svg width="145" height="25" viewBox="0 0 145 25" fill="none" xmlns="http://www.w3.org/2000/svg">
<path d="M11.5429 3.25785C11.9048 2.41926 13.0938 2.41926 13.4557 3.25785L15.7266 8.52023C15.8798 8.87532 16.2172 9.11629 16.6027 9.14608L22.4263 9.59607C23.3607 9.66827 23.732 10.8413 23.0093 11.4379L18.6297 15.0538C18.3208 15.3089 18.1855 15.7185 18.2818 16.1073L19.6296 21.5535C19.8513 22.4491 18.8851 23.1695 18.09 22.7014L13.0278 19.7212C12.7016 19.5292 12.297 19.5292 11.9708 19.7212L6.90861 22.7014C6.11351 23.1695 5.14734 22.4491 5.36899 21.5535L6.71684 16.1073C6.81308 15.7185 6.6778 15.3089 6.36888 15.0538L1.98932 11.4379C1.26665 10.8413 1.6379 9.66827 2.57227 9.59607L8.39586 9.14608C8.78145 9.11629 9.11879 8.87532 9.27202 8.52023L11.5429 3.25785Z" fill="#FBAB5E"/>
<path d="M40.7099 3.25785C41.0718 2.41926 42.2608 2.41926 42.6227 3.25785L44.8936 8.52023C45.0468 8.87532 45.3841 9.11629 45.7697 9.14608L51.5933 9.59607C52.5277 9.66827 52.8989 10.8413 52.1763 11.4379L47.7967 15.0538C47.4878 15.3089 47.3525 15.7185 47.4487 16.1073L48.7966 21.5535C49.0183 22.4491 48.0521 23.1695 47.257 22.7014L42.1948 19.7212C41.8686 19.5292 41.464 19.5292 41.1378 19.7212L36.0756 22.7014C35.2805 23.1695 34.3143 22.4491 34.536 21.5535L35.8838 16.1073C35.9801 15.7185 35.8448 15.3089 35.5359 15.0538L31.1563 11.4379C30.4336 10.8413 30.8049 9.66827 31.7393 9.59607L37.5629 9.14608C37.9484 9.11629 38.2858 8.87532 38.439 8.52023L40.7099 3.25785Z" fill="#FBAB5E"/>
<path d="M69.8759 3.25785C70.2378 2.41926 71.4268 2.41926 71.7887 3.25785L74.0596 8.52023C74.2128 8.87532 74.5502 9.11629 74.9358 9.14608L80.7593 9.59607C81.6937 9.66827 82.065 10.8413 81.3423 11.4379L76.9627 15.0538C76.6538 15.3089 76.5185 15.7185 76.6148 16.1073L77.9626 21.5535C78.1843 22.4491 77.2181 23.1695 76.423 22.7014L71.3608 19.7212C71.0346 19.5292 70.63 19.5292 70.3038 19.7212L65.2416 22.7014C64.4465 23.1695 63.4803 22.4491 63.702 21.5535L65.0499 16.1073C65.1461 15.7185 65.0108 15.3089 64.7019 15.0538L60.3223 11.4379C59.5997 10.8413 59.9709 9.66827 60.9053 9.59607L66.7289 9.14608C67.1145 9.11629 67.4518 8.87532 67.605 8.52023L69.8759 3.25785Z" fill="#FBAB5E"/>
<path d="M99.0429 3.25785C99.4048 2.41926 100.594 2.41926 100.956 3.25785L103.227 8.52023C103.38 8.87532 103.717 9.11629 104.103 9.14608L109.926 9.59607C110.861 9.66827 111.232 10.8413 110.509 11.4379L106.13 15.0538C105.821 15.3089 105.686 15.7185 105.782 16.1073L107.13 21.5535C107.351 22.4491 106.385 23.1695 105.59 22.7014L100.528 19.7212C100.202 19.5292 99.797 19.5292 99.4708 19.7212L94.4086 22.7014C93.6135 23.1695 92.6473 22.4491 92.869 21.5535L94.2168 16.1073C94.3131 15.7185 94.1778 15.3089 93.8689 15.0538L89.4893 11.4379C88.7666 10.8413 89.1379 9.66827 90.0723 9.59607L95.8959 9.14608C96.2814 9.11629 96.6188 8.87532 96.772 8.52023L99.0429 3.25785Z" fill="#FBAB5E"/>
<path d="M131.543 3.25785C131.905 2.41926 133.094 2.41926 133.456 3.25785L135.727 8.52023C135.88 8.87532 136.217 9.11629 136.603 9.14608L142.426 9.59607C143.361 9.66827 143.732 10.8413 143.009 11.4379L138.63 15.0538C138.321 15.3089 138.186 15.7185 138.282 16.1073L139.63 21.5535C139.851 22.4491 138.885 23.1695 138.09 22.7014L133.028 19.7212C132.702 19.5292 132.297 19.5292 131.971 19.7212L126.909 22.7014C126.114 23.1695 125.147 22.4491 125.369 21.5535L126.717 16.1073C126.813 15.7185 126.678 15.3089 126.369 15.0538L121.989 11.4379C121.267 10.8413 121.638 9.66827 122.572 9.59607L128.396 9.14608C128.781 9.11629 129.119 8.87532 129.272 8.52023L131.543 3.25785Z" fill="#FBAB5E"/>
<path fill-rule="evenodd" clip-rule="evenodd" d="M132.334 19.5904C132.57 19.5526 132.815 19.5962 133.028 19.7212L138.09 22.7014C138.885 23.1695 139.851 22.4491 139.63 21.5535L138.282 16.1073C138.186 15.7185 138.321 15.3089 138.63 15.0538L143.009 11.4379C143.732 10.8413 143.361 9.66827 142.426 9.59608L136.603 9.14608C136.217 9.11629 135.88 8.87532 135.727 8.52023L133.456 3.25785C133.249 2.77875 132.772 2.57336 132.334 2.6417V19.5904Z" fill="#E9E9F1"/>
</svg>
