<svg width="24" height="18" viewBox="0 0 24 18" fill="none" xmlns="http://www.w3.org/2000/svg">
<path d="M12.75 2.46034C13.731 1.51391 15.423 1.24331 17.418 1.42738C19.269 1.59771 21.1725 2.14578 22.5 2.65403V16.2845C21.123 15.8038 19.3395 15.334 17.5695 15.1719C15.9285 15.0194 14.1525 15.1183 12.75 15.8477V2.46034ZM12 1.21858C10.5225 0.0551221 8.3805 -0.117955 6.4305 0.0606166C4.1595 0.270782 1.8675 0.983694 0.4395 1.57847C0.308474 1.63305 0.197363 1.72099 0.119432 1.83182C0.0415 1.94264 3.98571e-05 2.07166 0 2.20348L0 17.3134C3.4743e-05 17.4283 0.0315557 17.5414 0.0916756 17.6422C0.151796 17.7431 0.238593 17.8285 0.344116 17.8907C0.44964 17.9529 0.570517 17.9899 0.695675 17.9982C0.820833 18.0065 0.946271 17.986 1.0605 17.9384C2.3835 17.3889 4.515 16.7282 6.5805 16.5373C8.694 16.3422 10.4655 16.6568 11.415 17.7419C11.4853 17.8222 11.5743 17.8869 11.6756 17.9314C11.7768 17.9759 11.8877 17.999 12 17.999C12.1123 17.999 12.2232 17.9759 12.3244 17.9314C12.4257 17.8869 12.5147 17.8222 12.585 17.7419C13.5345 16.6568 15.306 16.3422 17.418 16.5373C19.485 16.7282 21.618 17.3889 22.9395 17.9384C23.0537 17.986 23.1792 18.0065 23.3043 17.9982C23.4295 17.9899 23.5504 17.9529 23.6559 17.8907C23.7614 17.8285 23.8482 17.7431 23.9083 17.6422C23.9684 17.5414 24 17.4283 24 17.3134V2.20348C24 2.07166 23.9585 1.94264 23.8806 1.83182C23.8026 1.72099 23.6915 1.63305 23.5605 1.57847C22.1325 0.983694 19.8405 0.270782 17.5695 0.0606166C15.6195 -0.119329 13.4775 0.0551221 12 1.21858Z" fill="#0B0D21"/>
</svg>
