<svg width="12" height="14" viewBox="0 0 12 14" fill="none" xmlns="http://www.w3.org/2000/svg">
<path d="M11.2 4.858C11.1927 4.79369 11.1786 4.73034 11.158 4.669V4.606C11.1243 4.53403 11.0794 4.46787 11.025 4.41L6.825 0.21C6.76713 0.155551 6.70097 0.110657 6.629 0.0769999H6.566L6.342 0H2.1C1.54305 0 1.0089 0.221249 0.615076 0.615076C0.221249 1.0089 0 1.54305 0 2.1V11.9C0 12.457 0.221249 12.9911 0.615076 13.3849C1.0089 13.7788 1.54305 14 2.1 14H9.1C9.65695 14 10.1911 13.7788 10.5849 13.3849C10.9788 12.9911 11.2 12.457 11.2 11.9V4.9C11.2 4.9 11.2 4.9 11.2 4.858ZM7 2.387L8.813 4.2H7V2.387ZM9.8 11.9C9.8 12.0857 9.72625 12.2637 9.59497 12.395C9.4637 12.5263 9.28565 12.6 9.1 12.6H2.1C1.91435 12.6 1.7363 12.5263 1.60503 12.395C1.47375 12.2637 1.4 12.0857 1.4 11.9V2.1C1.4 1.91435 1.47375 1.7363 1.60503 1.60503C1.7363 1.47375 1.91435 1.4 2.1 1.4H5.6V4.9C5.6 5.08565 5.67375 5.2637 5.80502 5.39497C5.9363 5.52625 6.11435 5.6 6.3 5.6H9.8V11.9Z" fill="black"/>
</svg>
