<svg width="14" height="14" viewBox="0 0 14 14" fill="none" xmlns="http://www.w3.org/2000/svg">
<path d="M6.46413 1.82462C6.66678 1.35501 7.33267 1.35501 7.53532 1.82462L8.807 4.77155C8.89281 4.9704 9.08172 5.10535 9.29765 5.12203L12.5589 5.37403C13.0821 5.41446 13.29 6.07133 12.8853 6.40545L10.4328 8.43037C10.2598 8.57319 10.184 8.80257 10.2379 9.02033L10.9927 12.0702C11.1168 12.5717 10.5758 12.9752 10.1305 12.713L7.29566 11.0441C7.11302 10.9366 6.88643 10.9366 6.70379 11.0441L3.86894 12.713C3.42368 12.9752 2.88263 12.5717 3.00675 12.0702L3.76155 9.02033C3.81544 8.80257 3.73968 8.57319 3.56669 8.43037L1.11413 6.40545C0.709441 6.07133 0.917344 5.41446 1.44059 5.37403L4.7018 5.12203C4.91773 5.10535 5.10664 4.9704 5.19245 4.77155L6.46413 1.82462Z" fill="#FFD05A"/>
</svg>
